<?xml version="1.0" encoding="UTF-8"?>
<svg id="Calque_2" data-name="Calque 2" xmlns="http://www.w3.org/2000/svg" viewBox="0 0 682.34 76">
  <defs>
    <style>
      .cls-1 {
        fill: #ef233c;
      }

      .cls-1, .cls-2, .cls-3, .cls-4, .cls-5, .cls-6 {
        stroke-width: 0px;
      }

      .cls-2 {
        fill: #0f35ad;
      }

      .cls-3 {
        fill: #ffdc34;
      }

      .cls-4 {
        fill: #ffdc34;
      }

      .cls-5 {
        fill: #7795ee;
      }

      .cls-6 {
        fill: #fff;
      }
    </style>
  </defs>
  <g id="Calque_1-2" data-name="Calque 1">
    <g>
      <path class="cls-2" d="M681.88,18.7c-.89-4.13-3.33-7.95-6.74-10.49-2.72-2.03-5.87-3.24-9.07-3.51-.57-.05-1.13-.08-1.71-.08-2.7,0-5.31.61-7.75,1.81-2.63,1.23-4.93,3.12-6.64,5.44l-14.7,19.68c.19-1.19.24-2.22.24-2.94v-.44c0-13.56-10.32-22.67-25.68-22.67-9.3,0-16.96,3.3-22.07,8.99-3.75-5.64-9.95-8.99-17.69-8.99-3.91,0-7.65.94-10.93,2.66-2.24-1.67-4.86-2.58-7.63-2.58-3.15,0-6.99,1.03-10.33,3.01-2.47-1.88-5.85-3.08-10.25-3.08-6.46,0-10.74,2.57-13.12,6.13-4.53-3.94-10.98-6.13-18.91-6.13-6.12,0-11.83,1-16.63,2.9-.32-.26-.64-.51-1-.73-.09-.06-.18-.11-.27-.16-2.33-1.33-5.12-2-8.29-2-2.88,0-6.12.56-9.16,2.33-2.07-1.44-4.56-2.25-7.19-2.25-1.66,0-3.4.31-5.1.86-2.17-3.59-6.54-6.44-14.05-6.44-2.09,0-3.99.27-5.21.5-2.19.41-4.11,1.71-5.3,3.6-.31.49-.56,1.01-.75,1.54-1.12-.09-2.28-.14-3.48-.14-7.67,0-14,1.99-18.48,5.53-2.45-3.24-6.6-5.53-12.69-5.53s-10.08,2.19-12.55,5.32c-3.71-3.39-8.71-5.32-14.6-5.32-4.61,0-8.94,1.27-12.59,3.59-3.41-2.32-7.59-3.59-12.2-3.59-3.9,0-7.57.92-10.8,2.64-2.23-1.67-4.85-2.57-7.61-2.57-4.79,0-11.16,2.39-14.96,6.85-1.3-1.82-3.1-3.32-5.29-4.38-4.62-2.41-11.53-3.27-16.5-3.27-9.72,0-16.06,3.03-19.84,7.34-3.81-4.64-9.52-7.34-16.47-7.34-3.91,0-7.65.94-10.93,2.66-2.24-1.67-4.86-2.58-7.63-2.58-4.43,0-10.22,2.05-14.08,5.89-4.52-3.84-10.9-5.96-18.71-5.96-7.08,0-13.61,1.34-18.83,3.85-.57.27-1.36.72-2.2,1.39-.9-.76-1.91-1.43-3.03-1.98-4.61-2.41-11.52-3.27-16.5-3.27-12.94,0-19.9,5.36-22.79,11.99-4.82-7.63-13.5-11.99-24.93-11.99-9.13,0-16.5,2.8-21.54,7.82-4.51-4.94-11.56-7.82-20.2-7.82-8.17,0-15.07,2.54-20.09,7.01-1.25-1.53-2.86-2.81-4.78-3.74-4.62-2.41-11.53-3.27-16.5-3.27C7.12,4.77.71,15.16.71,24.87c0,4.27,1.08,7.64,2.82,10.32-.04.04-.07.08-.1.12C.45,38.9-.68,43.8.4,48.42c1.01,4.36,3.92,7.9,7.92,9.7,4.48,2.04,9.8,3,16.74,3,10.94,0,17.27-3.26,20.92-7.25,5.25,4.67,12.76,7.25,21.99,7.25,7.49,0,13.94-1.59,18.17-4.49.79-.54,1.49-1.19,2.12-1.91,4.96,4.13,11.75,6.4,19.98,6.4,10.58,0,18.79-3.73,23.78-10.32,1.38,3.26,3.88,5.87,7.12,7.32,4.48,2.04,9.8,3,16.74,3,9.15,0,15.07-2.28,18.91-5.36,3.75,3.39,8.92,5.36,14.99,5.36,4.19,0,8.04-.88,11.39-2.57,2.23,1.61,4.85,2.5,7.54,2.5,3.09,0,6.8-1.02,10.03-2.99,2.18,1.45,5.46,2.48,10.37,2.48,7.4,0,11.09-2.33,12.91-4.94,1.82,2.61,5.51,4.94,12.91,4.94,5.56,0,9.02-1.32,11.17-3.08.42.24.84.47,1.28.67,4.48,2.04,9.8,3,16.74,3,12.28,0,18.74-4.1,22.14-8.74.56,3.55,3.27,8.88,14.47,8.88,7.23,0,10.92-2.23,12.78-4.76,1.83,2.5,5.43,4.76,12.45,4.76s10.62-2.26,12.45-4.76c1.86,2.53,5.55,4.76,12.78,4.76,4.68,0,7.88-.94,10.05-2.28,2.18,1.35,5.37,2.28,10.05,2.28,1.09,0,2.09-.05,3.02-.15.84,5.73,5.55,14.89,27.05,14.89s28.35-8.21,31.05-15.05c1.28.2,2.7.31,4.31.31,13.18,0,14.6-7.39,14.6-10.57v-4.3c2.14,9.31,10.1,15.46,20.83,15.46,4.19,0,8.04-.88,11.39-2.57,2.23,1.61,4.85,2.5,7.54,2.5,3,0,6.59-.96,9.75-2.82,2.18,1.36,5.38,2.31,10.09,2.31s8-.97,10.18-2.36c2.18,1.39,5.41,2.36,10.18,2.36,7.4,0,11.09-2.33,12.91-4.94,1.82,2.61,5.51,4.94,12.91,4.94,8.1,0,11.76-2.79,13.38-5.69,5.17,4.05,12.25,6.27,20.81,6.27,7.36,0,13.7-1.54,17.94-4.35.16.28.3.57.47.84,1.01,1.65,2.39,3.2,4.11,4.61.11.09.22.17.33.25,3.12,2.29,6.79,3.49,10.62,3.49,1.92,0,3.81-.3,5.63-.89,3.41-1.01,6.63-3.29,8.89-6.29l19.61-26.37c.68-.9,1.27-1.87,1.76-2.87.04-.08.07-.16.11-.23,1.61-3.58,1.99-7.5,1.1-11.32Z"/>
      <g>
        <g>
          <path class="cls-6" d="M314.13,50.69v-22.59c0-4.84-.73-7.41-2.79-9.46,1.69-3.01,6.53-5.06,9.61-5.06,1.91,0,3.45,1.17,4.55,2.86.73,1.1,1.17,2.35,1.47,3.74,2.71-4.18,7.19-6.68,12.4-6.68,5.5,0,9.75,2.57,11.81,7.19,2.64-4.47,7.41-7.19,12.98-7.19,8.29,0,13.64,5.5,13.64,15.04v22.15c0,1.76-2.05,2.57-6.6,2.57s-6.6-.81-6.6-2.57v-21.42c0-3.96-1.83-5.72-5.35-5.72-4.47,0-6.97,2.93-6.97,8.73v18.41c0,1.76-2.05,2.57-6.31,2.57s-6.31-.81-6.31-2.57v-21.42c0-3.96-1.91-5.72-5.35-5.72-4.47,0-6.97,2.93-6.97,8.73v18.41c0,1.76-2.05,2.57-6.6,2.57s-6.6-.81-6.6-2.57Z"/>
          <path class="cls-6" d="M391.31,13.5c4.75,0,7.39,2.1,7.39,5.83s-2.65,5.83-7.39,5.83-7.39-2.1-7.39-5.83,2.65-5.83,7.39-5.83ZM384.7,50.69v-19.48c0-1.76,1.98-2.57,6.6-2.57s6.6.81,6.6,2.57v19.48c0,1.76-2.05,2.57-6.6,2.57s-6.6-.81-6.6-2.57Z"/>
          <path class="cls-6" d="M530.94,13.5c4.75,0,7.39,2.1,7.39,5.83s-2.65,5.83-7.39,5.83-7.39-2.1-7.39-5.83,2.65-5.83,7.39-5.83ZM524.34,50.69v-19.48c0-1.76,1.98-2.57,6.6-2.57s6.6.81,6.6,2.57v19.48c0,1.76-2.05,2.57-6.6,2.57s-6.6-.81-6.6-2.57Z"/>
          <path class="cls-6" d="M402.16,58.9c0-3.23,2.05-5.72,6.6-7.34-3.15-1.39-4.62-3.52-4.62-6.45,0-3.67,2.2-6.31,6.89-7.85-4.18-2.2-6.38-5.79-6.38-10.56,0-8.44,6.97-13.2,17.82-13.2,4.33,0,7.92.73,10.71,2.27.51-1.17.81-2.42.81-3.67,0-1.39-.22-2.64-.51-3.74,1.17-.22,2.49-.37,3.74-.37,4.03,0,7.77,1.03,7.77,4.69,0,3.45-2.64,5.72-6.23,6.67,2.2,1.76,3.37,4.33,3.37,7.63,0,8.21-6.89,12.69-18.78,12.69-1.91,0-3.67-.15-5.28-.37-.95.59-1.32,1.03-1.32,1.83,0,2.05,2.79,2.49,9.17,2.49h6.67c9.39,0,13.28,3.37,13.28,9.75,0,10.56-10.93,14.6-24.5,14.6-12.54,0-19.22-3.37-19.22-9.09ZM422.26,60.59c7.99,0,12.62-1.54,12.62-4.69,0-1.69-1.25-2.35-5.28-2.35h-6.6c-2.86,0-5.28-.15-7.48-.37-1.69.81-2.49,2.2-2.49,3.6,0,2.42,2.35,3.81,9.24,3.81ZM423.36,33.16c3.81,0,5.94-2.27,5.94-6.38s-2.13-6.38-5.94-6.38-5.94,2.27-5.94,6.38,2.13,6.38,5.94,6.38Z"/>
          <path class="cls-6" d="M450.14,50.69v-22.59c0-4.84-.73-7.41-2.79-9.46,1.91-2.86,6.09-5.06,9.02-5.06,1.83,0,3.37,1.03,4.18,2.64.73,1.39,1.1,3.3,1.1,5.28v3.3c1.76-7.41,4.99-11.3,11.07-11.3,1.91,0,3.3.37,4.33.95,1.17.73,1.61,2.79,1.61,4.84,0,2.79-.81,6.09-2.05,7.77-1.17-.73-2.49-1.17-4.18-1.17-4.55,0-9.1,3.67-9.1,13.71v11.08c0,1.76-2.05,2.57-6.6,2.57s-6.6-.81-6.6-2.57Z"/>
          <path class="cls-6" d="M478.75,41.23c0-8.07,5.58-12.54,14.38-12.54,4.91,0,9.17,1.61,11.66,4.03v-2.13c0-5.65-2.79-8.51-9.09-8.51-4.03,0-8.8,1.17-12.69,3.45-.81-1.47-1.39-3.01-1.39-4.99s.51-3.3,1.91-3.96c3.96-1.91,9.24-3.08,15.4-3.08,12.47,0,18.26,6.02,18.26,15.77v10.34c0,4.84.73,7.41,2.79,9.46-1.61,2.71-5.8,4.69-8.88,4.69-1.83,0-3.52-1.17-4.62-2.86-.59-.96-1.1-2.13-1.39-3.23-2.79,3.96-7.34,6.16-12.91,6.16-8.14,0-13.42-4.77-13.42-12.62ZM496.86,45.33c3.23,0,6.01-1.83,7.63-4.99-1.76-3.16-4.4-4.69-7.55-4.69-3.45,0-5.43,1.83-5.43,4.84s1.98,4.84,5.35,4.84Z"/>
          <path class="cls-6" d="M544.7,50.69v-22.59c0-4.84-.73-7.41-2.79-9.46,1.69-3.01,6.53-5.06,9.61-5.06,1.91,0,3.45,1.17,4.55,2.86.73,1.1,1.17,2.35,1.47,3.67,2.64-4.11,7.19-6.6,12.54-6.6,8.44,0,13.64,5.5,13.64,15.18v22c0,1.76-2.05,2.57-6.6,2.57s-6.6-.81-6.6-2.57v-21.05c0-4.18-1.83-6.09-5.43-6.09-4.62,0-7.19,3.08-7.19,9.24v17.9c0,1.76-2.05,2.57-6.6,2.57s-6.6-.81-6.6-2.57Z"/>
          <path class="cls-6" d="M588.86,33.96c0-12.83,8.44-20.46,20.98-20.46,10.64,0,17.68,5.43,17.68,14.67v.44c0,5.5-2.93,8.21-10.27,8.21h-15.04c.73,6.01,5.28,8.14,11.22,8.14,4.62,0,9.02-1.25,11.66-3.23,1.1,1.03,1.61,2.86,1.61,4.62s-.59,3.59-1.76,4.4c-2.79,1.91-7.7,3.08-13.64,3.08-15.26,0-22.45-7.92-22.45-19.88ZM612.03,29.93c2.42,0,3.3-.66,3.3-2.42v-.51c0-3.38-2.27-5.65-6.09-5.65-4.47,0-7.26,3.15-7.63,8.58h10.42Z"/>
        </g>
        <g>
          <path class="cls-6" d="M11.64,50.84c-4.25-1.91-4.55-7.41-2.05-10.42,3.81,2.79,10.12,4.18,15.33,4.18,3.23,0,5.35-.81,5.35-2.71,0-1.76-1.54-2.57-5.65-3.59-8.29-2.27-15.92-4.55-15.92-13.42s7.04-12.1,16.43-12.1c4.91,0,10.2.95,12.91,2.42,4.25,1.98,3.81,6.09,1.61,9.83-3.45-2.2-8.66-3.74-13.5-3.74-3.59,0-4.91,1.03-4.91,2.57s1.1,2.2,4.62,3.23c8.58,2.35,17.02,4.03,17.02,13.64,0,8.36-6.67,12.39-17.82,12.39-5.72,0-10.05-.73-13.42-2.27Z"/>
          <path class="cls-6" d="M45.53,33.23c0-12.84,8.44-20.46,20.98-20.46,10.64,0,17.68,5.43,17.68,14.67v.44c0,5.5-2.93,8.21-10.27,8.21h-15.04c.73,6.01,5.28,8.14,11.22,8.14,4.62,0,9.02-1.25,11.66-3.23,1.1,1.03,1.61,2.86,1.61,4.62s-.59,3.59-1.76,4.4c-2.79,1.91-7.7,3.08-13.64,3.08-15.26,0-22.45-7.92-22.45-19.88ZM68.71,29.2c2.42,0,3.3-.66,3.3-2.42v-.51c0-3.37-2.27-5.65-6.09-5.65-4.47,0-7.26,3.15-7.63,8.58h10.42Z"/>
          <path class="cls-6" d="M87.13,32.94c0-12.4,7.11-20.17,21.12-20.17s21.2,7.77,21.2,20.17-7.11,20.17-21.2,20.17-21.12-7.77-21.12-20.17ZM108.25,44.53c4.99,0,7.63-3.45,7.63-11.59s-2.64-11.59-7.63-11.59-7.56,3.45-7.56,11.59,2.64,11.59,7.56,11.59Z"/>
        </g>
        <g>
          <path class="cls-5" d="M142.48,50.84c-4.25-1.91-4.55-7.41-2.05-10.42,3.81,2.79,10.12,4.18,15.33,4.18,3.23,0,5.35-.81,5.35-2.71,0-1.76-1.54-2.57-5.65-3.59-8.29-2.27-15.92-4.55-15.92-13.42s7.04-12.1,16.43-12.1c4.91,0,10.2.95,12.91,2.42,4.25,1.98,3.81,6.09,1.61,9.83-3.45-2.2-8.66-3.74-13.5-3.74-3.59,0-4.91,1.03-4.91,2.57s1.1,2.2,4.62,3.23c8.58,2.35,17.02,4.03,17.02,13.64,0,8.36-6.67,12.39-17.82,12.39-5.72,0-10.05-.73-13.42-2.27Z"/>
          <path class="cls-5" d="M176.37,40.5c0-8.07,5.57-12.54,14.38-12.54,4.91,0,9.17,1.61,11.66,4.03v-2.13c0-5.65-2.79-8.51-9.09-8.51-4.03,0-8.8,1.17-12.69,3.45-.81-1.47-1.39-3.01-1.39-4.99s.51-3.3,1.91-3.96c3.96-1.91,9.24-3.08,15.4-3.08,12.47,0,18.26,6.01,18.26,15.77v10.34c0,4.84.73,7.41,2.79,9.46-1.61,2.71-5.8,4.69-8.88,4.69-1.83,0-3.52-1.17-4.62-2.86-.59-.95-1.1-2.13-1.39-3.23-2.79,3.96-7.34,6.16-12.91,6.16-8.14,0-13.42-4.77-13.42-12.62ZM194.48,44.6c3.23,0,6.01-1.83,7.63-4.99-1.76-3.15-4.4-4.69-7.56-4.69-3.45,0-5.43,1.83-5.43,4.84s1.98,4.84,5.35,4.84Z"/>
          <path class="cls-5" d="M222.51,49.96v-22.59c0-4.84-.73-7.41-2.79-9.46,1.69-3.01,6.53-5.06,9.61-5.06,1.91,0,3.45,1.17,4.55,2.86.73,1.1,1.17,2.35,1.47,3.67,2.64-4.11,7.19-6.6,12.54-6.6,8.44,0,13.64,5.5,13.64,15.18v22c0,1.76-2.05,2.57-6.6,2.57s-6.6-.81-6.6-2.57v-21.05c0-4.18-1.83-6.09-5.43-6.09-4.62,0-7.19,3.08-7.19,9.24v17.9c0,1.76-2.05,2.57-6.6,2.57s-6.6-.81-6.6-2.57Z"/>
          <path class="cls-5" d="M270.71,50.84c-4.25-1.91-4.55-7.41-2.05-10.42,3.81,2.79,10.12,4.18,15.33,4.18,3.23,0,5.35-.81,5.35-2.71,0-1.76-1.54-2.57-5.65-3.59-8.29-2.27-15.92-4.55-15.92-13.42s7.04-12.1,16.43-12.1c4.91,0,10.2.95,12.91,2.42,4.25,1.98,3.81,6.09,1.61,9.83-3.45-2.2-8.66-3.74-13.5-3.74-3.59,0-4.91,1.03-4.91,2.57s1.1,2.2,4.62,3.23c8.58,2.35,17.02,4.03,17.02,13.64,0,8.36-6.67,12.39-17.82,12.39-5.72,0-10.05-.73-13.42-2.27Z"/>
        </g>
        <g>
          <g>
            <path class="cls-6" d="M635.01,50.14c.19,1.37.71,2.75,1.5,3.98.53.89,1.32,1.77,2.37,2.63,1.72,1.26,3.75,1.94,5.89,1.94,1.1,0,2.2-.18,3.25-.53,1.84-.52,3.64-1.81,4.85-3.43l19.63-26.4c.36-.47.68-.99.96-1.57.89-1.99,1.1-4.18.59-6.31-.47-2.29-1.83-4.41-3.71-5.82-1.51-1.13-3.25-1.81-5-1.96-.33-.03-.65-.04-.99-.04-1.48,0-2.92.34-4.29,1.02-1.45.67-2.73,1.71-3.69,3.01l-19.5,26.1c-1.57,2.08-2.24,4.78-1.87,7.38Z"/>
            <path class="cls-3" d="M644.78,58.86c-2.16,0-4.23-.68-6-1.98-1.06-.87-1.88-1.77-2.42-2.68-.8-1.25-1.33-2.65-1.52-4.04h0c-.38-2.67.31-5.41,1.91-7.51l19.5-26.1c.98-1.33,2.28-2.39,3.76-3.07,1.38-.69,2.85-1.04,4.36-1.04.35,0,.68.01,1.01.05,1.78.15,3.54.84,5.09,1.99,1.92,1.43,3.29,3.59,3.78,5.92.51,2.16.31,4.38-.61,6.42-.27.56-.59,1.08-.98,1.61l-19.63,26.4c-1.25,1.67-3.1,2.97-4.95,3.49-1.06.36-2.17.54-3.3.54ZM664.36,12.8c-1.46,0-2.87.34-4.21,1-1.43.66-2.69,1.68-3.63,2.96l-19.5,26.1c-1.54,2.03-2.2,4.67-1.84,7.24h0c.19,1.34.7,2.69,1.47,3.91.53.88,1.31,1.75,2.34,2.58,1.7,1.24,3.7,1.9,5.78,1.9,1.09,0,2.16-.18,3.19-.52,1.78-.5,3.56-1.76,4.77-3.37l19.63-26.4c.38-.5.69-1.01.95-1.54.88-1.96,1.08-4.1.58-6.19-.47-2.25-1.79-4.33-3.64-5.71-1.49-1.11-3.19-1.78-4.91-1.92-.32-.03-.64-.04-.98-.04Z"/>
          </g>
          <g>
            <path class="cls-1" d="M655.95,33.91c-2.84-2.12-6.16-2.71-9.46-2.79l10.48-14.03c.9-1.2,2.09-2.17,3.44-2.78,1.26-.63,2.6-.95,3.95-.95.31,0,.62.02.93.05,1.62.14,3.21.76,4.62,1.81,1.75,1.31,3,3.27,3.43,5.4.47,1.97.28,4-.53,5.8-.25.5-.54.99-.9,1.46l-10.34,13.84c-1.01-3.17-2.77-5.67-5.63-7.81Z"/>
            <path class="cls-4" d="M637.47,43.2l8.04-10.77h.7c3.82.09,6.65.91,8.91,2.59,2.63,1.97,4.3,4.28,5.26,7.28l.25.8-8.34,11.16c-1.14,1.53-2.78,2.69-4.51,3.17-2.89.99-6.02.5-8.42-1.29-1-.81-1.73-1.61-2.22-2.44-.74-1.16-1.21-2.42-1.4-3.7-.35-2.4.28-4.89,1.73-6.82Z"/>
            <g>
              <path class="cls-6" d="M650.44,29.14c.01.11.07.22.17.29.08.06.17.08.27.08.14,0,.28-.06.37-.17l7.23-9.69c.07-.1.1-.21.08-.34-.03-.11-.08-.21-.18-.28-.07-.07-.17-.1-.27-.1-.14,0-.27.07-.37.18l-7.22,9.67c-.08.1-.11.21-.08.34Z"/>
              <path class="cls-6" d="M650.44,29.14c.01.11.07.22.17.29.08.06.17.08.27.08.14,0,.28-.06.37-.17l7.23-9.69c.07-.1.1-.21.08-.34-.03-.11-.08-.21-.18-.28-.07-.07-.17-.1-.27-.1-.14,0-.27.07-.37.18l-7.22,9.67c-.08.1-.11.21-.08.34Z"/>
            </g>
            <path class="cls-6" d="M640.63,43.24c.14,0,.27-.07.36-.18l5.75-7.7c.07-.1.1-.21.08-.33-.02-.12-.08-.22-.18-.29-.08-.06-.17-.09-.27-.09-.14,0-.27.07-.36.18l-5.75,7.69c-.15.2-.11.48.09.63.08.06.17.09.27.09Z"/>
          </g>
        </g>
      </g>
    </g>
  </g>
</svg>